<?xml version="1.0"?>
<svg xmlns="http://www.w3.org/2000/svg" xmlns:xlink="http://www.w3.org/1999/xlink" version="1.1" id="Capa_1" x="0px" y="0px" width="512px" height="512px" viewBox="0 0 972 972" style="enable-background:new 0 0 972 972;" xml:space="preserve" class=""><g><g>
	<path d="M90,576h0.5c49.7,0,90-40.3,90-90s-40.3-90-90-90H90c-49.7,0-90,40.3-90,90S40.3,576,90,576z" data-original="#000000" class="active-path" data-old_color="#000000" fill="#66C183"/>
	<path d="M617.5,576h1.1c49.7,0,90-40.3,90-90s-40.3-90-90-90h-1.1c-49.7,0-90,40.3-90,90S567.8,576,617.5,576z" data-original="#000000" class="active-path" data-old_color="#000000" fill="#66C183"/>
	<path d="M354.5,576c49.7,0,90-40.3,90-90s-40.3-90-90-90h-1.1c-49.7,0-90,40.3-90,90s40.3,90,90,90H354.5z" data-original="#000000" class="active-path" data-old_color="#000000" fill="#66C183"/>
	<path d="M881.5,576h0.5c49.7,0,90-40.3,90-90s-40.3-90-90-90h-0.5c-49.7,0-90,40.3-90,90S831.8,576,881.5,576z" data-original="#000000" class="active-path" data-old_color="#000000" fill="#66C183"/>
</g></g> </svg>
